<?xml version="1.0" standalone="no"?>
<!DOCTYPE svg PUBLIC "-//W3C//DTD SVG 20010904//EN"
 "http://www.w3.org/TR/2001/REC-SVG-20010904/DTD/svg10.dtd">
<svg version="1.0" xmlns="http://www.w3.org/2000/svg"
 width="50.000000pt" height="60.000000pt" viewBox="0 0 200.000000 200.000000"
 preserveAspectRatio="xMidYMid meet">
<metadata>
Created by potrace 1.16, written by Peter Selinger 2001-2019
</metadata>
<g transform="translate(0.000000,200.000000) scale(0.100000,-0.100000)"
fill="#000000" stroke="none">
<path d="M852 1740 c-107 -54 -162 -138 -170 -260 -4 -72 -6 -77 -47 -121 -74
-79 -95 -148 -57 -182 25 -23 112 -22 182 3 l55 19 45 -22 c67 -33 196 -31
265 3 107 52 175 161 175 279 0 51 3 60 31 87 48 44 89 114 89 150 0 64 -51
83 -155 59 -37 -8 -74 -19 -83 -24 -10 -6 -32 -1 -66 15 -78 37 -183 34 -264
-6z m243 -34 c48 -21 104 -74 130 -127 l25 -48 -53 -43 c-90 -75 -88 -74 -85
-47 2 14 -3 24 -13 26 -10 3 -22 -13 -37 -49 -32 -78 -32 -78 49 -78 61 0 70
2 67 17 -2 9 -14 20 -26 23 -21 5 -17 9 38 48 34 24 63 42 65 40 9 -9 -18
-106 -40 -144 -68 -117 -224 -160 -346 -96 -56 29 -114 94 -126 140 -5 22 1
32 42 69 26 24 56 48 66 54 16 8 19 6 16 -13 -4 -40 26 -26 50 22 34 71 31 80
-27 82 -27 1 -58 2 -67 2 -10 1 -19 -7 -21 -16 -3 -14 3 -18 22 -18 14 0 26
-3 26 -7 0 -5 -27 -27 -60 -50 l-60 -43 0 38 c0 77 74 184 149 214 74 30 150
31 216 4z"/>
<path d="M590 805 l0 -185 30 0 30 0 0 80 0 80 30 0 30 0 0 -80 0 -80 30 0 30
0 0 185 0 185 -30 0 -30 0 0 -80 0 -80 -30 0 -30 0 0 80 0 80 -30 0 -30 0 0
-185z"/>
<path d="M820 776 c0 -97 4 -136 13 -144 7 -6 45 -11 85 -11 l72 0 0 145 0
144 -30 0 -29 0 -3 -117 c-3 -114 -4 -118 -25 -121 -23 -3 -23 -2 -23 117 l0
121 -30 0 -30 0 0 -134z"/>
<path d="M1030 764 l0 -144 30 0 29 0 3 117 c3 103 5 118 21 121 15 3 17 -8
17 -117 l0 -121 35 0 35 0 0 125 c0 156 -5 164 -104 164 l-66 0 0 -145z"/>
<path d="M1249 889 c-16 -16 -19 -33 -19 -122 0 -127 12 -151 71 -145 32 3 39
0 39 -14 0 -15 -9 -18 -50 -18 -47 0 -50 -2 -50 -25 0 -24 2 -25 68 -25 40 0
73 5 80 12 8 8 12 64 12 184 l0 173 -66 0 c-51 0 -69 -4 -85 -20z"/>
<path d="M1350 485 c0 -14 -4 -25 -10 -25 -5 0 -10 -11 -10 -25 0 -14 5 -25
10 -25 6 0 10 -41 10 -104 0 -97 2 -106 22 -120 12 -9 35 -16 50 -16 24 0 28
4 28 30 0 23 -4 30 -20 30 -19 0 -20 7 -20 90 0 83 1 90 20 90 15 0 20 7 20
25 0 18 -5 25 -20 25 -15 0 -20 7 -20 25 0 21 -5 25 -30 25 -25 0 -30 -4 -30
-25z"/>
<path d="M220 450 c-12 -7 -15 -34 -15 -130 0 -140 5 -150 85 -150 58 0 79 15
87 63 6 37 6 37 -30 37 -29 0 -36 -4 -39 -22 -2 -13 -10 -23 -18 -23 -12 0
-16 18 -18 93 -3 87 -2 92 18 92 15 0 20 -7 20 -25 0 -22 4 -25 36 -25 l37 0
-7 42 c-4 23 -12 46 -19 50 -17 11 -119 10 -137 -2z"/>
<path d="M422 448 c-8 -8 -12 -53 -12 -135 0 -111 2 -123 19 -133 25 -13 92
-13 125 0 26 9 26 10 26 133 0 82 -4 127 -12 135 -7 7 -39 12 -73 12 -34 0
-66 -5 -73 -12z"/>
<path d="M620 315 l0 -145 30 0 30 0 0 120 0 120 25 0 25 0 0 -120 0 -120 30
0 30 0 0 120 c0 113 1 120 20 120 19 0 20 -7 20 -120 l0 -120 36 0 36 0 -4
135 c-2 103 -6 138 -17 144 -8 5 -70 10 -138 10 l-123 1 0 -145z"/>
<path d="M930 274 l0 -184 30 0 c29 0 30 2 30 45 0 43 1 44 28 39 15 -3 39 -1
55 5 l27 11 0 124 c0 89 -4 127 -13 134 -7 6 -45 11 -85 11 l-72 0 0 -185z"/>
<path d="M1140 333 c0 -71 4 -134 9 -142 6 -10 33 -16 85 -18 l76 -3 0 145 0
145 -30 0 -30 0 0 -109 c0 -83 -3 -111 -15 -121 -28 -23 -35 0 -35 116 l0 114
-30 0 -30 0 0 -127z"/>
<path d="M1480 441 c-5 -11 -10 -69 -10 -130 0 -102 2 -111 22 -125 25 -18 84
-21 122 -6 21 8 26 16 26 45 0 32 -2 35 -30 35 -24 0 -30 -4 -30 -21 0 -15 -5
-20 -22 -17 -19 2 -24 10 -26 41 l-3 37 55 0 56 0 0 68 c0 40 -5 73 -12 80 -7
7 -39 12 -75 12 -51 0 -64 -3 -73 -19z"/>
<path d="M1680 314 l0 -144 30 0 30 0 0 108 c0 111 7 132 42 132 12 0 18 8 18
24 0 23 -3 24 -60 25 l-60 0 0 -145z"/>
</g>
</svg>
